<?xml version="1.0" standalone="no"?>
<!DOCTYPE svg PUBLIC "-//W3C//DTD SVG 20010904//EN"
 "http://www.w3.org/TR/2001/REC-SVG-20010904/DTD/svg10.dtd">
<svg version="1.0" xmlns="http://www.w3.org/2000/svg"
 width="284.000000pt" height="177.000000pt" viewBox="0 0 284.000000 177.000000"
 preserveAspectRatio="xMidYMid meet">

<g transform="translate(0.000000,177.000000) scale(0.100000,-0.100000)"
fill="#000000" stroke="none">
<path d="M555 1170 c-3 -6 1 -7 9 -4 18 7 21 14 7 14 -6 0 -13 -4 -16 -10z"/>
<path d="M751 1156 c2 -2 15 -9 29 -15 24 -11 24 -11 6 3 -16 13 -49 24 -35
12z"/>
<path d="M768 1070 l-33 -39 -48 16 c-64 21 -121 6 -172 -47 -67 -69 -67 -165
1 -231 19 -18 34 -29 34 -23 0 5 -11 19 -25 32 -45 43 -45 143 0 188 13 13 21
24 17 24 -4 0 7 9 23 19 31 19 116 23 160 7 16 -5 30 1 58 28 35 32 49 66 28
66 -5 0 -24 -18 -43 -40z"/>
<path d="M876 1095 c-3 -9 -6 -32 -6 -51 0 -31 2 -34 31 -34 18 0 28 4 24 10
-4 6 -11 8 -16 5 -5 -4 -9 -3 -10 2 0 4 -2 23 -4 41 -4 40 -10 49 -19 27z"/>
<path d="M1086 1075 c-28 -24 -35 -65 -11 -65 8 0 15 7 15 15 0 8 5 15 10 15
6 0 10 5 10 12 0 6 7 19 15 28 24 26 -8 22 -39 -5z"/>
<path d="M997 1079 c7 -7 15 -10 18 -7 3 3 -2 9 -12 12 -14 6 -15 5 -6 -5z"/>
<path d="M970 1050 c0 -5 5 -10 11 -10 5 0 7 5 4 10 -3 6 -8 10 -11 10 -2 0
-4 -4 -4 -10z"/>
<path d="M1014 1052 c11 -18 -5 -61 -25 -67 -10 -3 -27 -1 -39 5 -11 6 -20 7
-20 2 0 -4 -16 -6 -35 -4 -19 2 -35 0 -35 -6 0 -12 59 -22 66 -10 3 4 13 4 22
-1 21 -11 72 -3 72 11 0 6 7 5 15 -2 9 -8 15 -9 15 -2 0 6 -4 14 -10 17 -5 3
-10 17 -10 30 0 13 -5 27 -12 31 -7 4 -8 3 -4 -4z"/>
<path d="M1140 1049 c0 -4 9 -9 20 -12 26 -7 26 -33 -1 -48 -16 -8 -27 -8 -46
2 -20 11 -26 10 -39 -3 -11 -11 -12 -18 -5 -22 6 -4 11 -2 11 4 0 6 5 8 12 4
7 -4 8 -3 4 4 -9 16 -4 15 30 -2 44 -24 78 1 68 50 -4 22 -11 29 -30 29 -13 0
-24 -3 -24 -6z"/>
<path d="M968 1013 c7 -3 16 -2 19 1 4 3 -2 6 -13 5 -11 0 -14 -3 -6 -6z"/>
<path d="M1823 943 c20 -2 54 -2 75 0 20 2 3 4 -38 4 -41 0 -58 -2 -37 -4z"/>
<path d="M2288 943 c17 -2 47 -2 65 0 17 2 3 4 -33 4 -36 0 -50 -2 -32 -4z"/>
<path d="M2403 943 c9 -2 25 -2 35 0 9 3 1 5 -18 5 -19 0 -27 -2 -17 -5z"/>
<path d="M1231 919 c13 -25 50 -81 60 -89 3 -3 15 -22 28 -42 27 -45 31 -46
31 -12 0 14 -4 23 -9 19 -5 -3 -31 26 -57 65 -47 71 -77 104 -53 59z"/>
<path d="M1085 895 c66 -98 28 -217 -79 -246 -50 -14 -101 0 -148 39 -33 27
-33 27 -17 2 9 -13 36 -35 60 -48 84 -45 198 -9 228 72 21 55 14 119 -18 164
-38 51 -60 65 -26 17z"/>
<path d="M1400 790 l0 -140 -29 0 c-26 0 -37 11 -93 95 l-63 96 -3 -96 c-3
-94 -3 -95 -27 -95 -17 0 -25 6 -26 18 0 11 -2 12 -6 4 -12 -31 55 -59 73 -31
4 7 7 40 7 75 0 35 3 64 6 64 4 0 24 -27 44 -59 49 -76 69 -93 104 -89 25 3
29 8 33 43 8 63 0 255 -11 255 -5 0 -9 -60 -9 -140z"/>
<path d="M1536 903 c84 -131 104 -157 104 -135 0 12 -4 22 -9 22 -5 0 -29 31
-53 70 -24 38 -47 69 -52 70 -4 0 0 -12 10 -27z"/>
<path d="M1696 915 c-3 -9 -6 -73 -6 -141 l0 -124 -28 0 c-25 0 -36 12 -90 97
l-62 97 0 -96 0 -97 -27 -3 c-25 -4 -26 -5 -9 -13 35 -16 51 7 52 74 0 34 3
63 6 66 3 3 26 -26 52 -65 49 -72 82 -93 115 -73 13 8 17 34 19 137 3 122 -6
181 -22 141z"/>
<path d="M1940 910 c0 -18 -7 -20 -70 -20 l-70 0 0 -35 c0 -25 4 -33 14 -29 7
3 13 13 12 22 -1 14 11 18 64 22 63 5 65 6 66 33 1 15 -3 27 -7 27 -5 0 -9 -9
-9 -20z"/>
<path d="M2210 915 c10 -12 10 -18 -1 -32 -7 -10 -15 -20 -16 -22 -2 -2 -12 4
-24 15 -27 24 -91 25 -118 0 -11 -10 -25 -33 -31 -51 -14 -41 7 -97 42 -116
l23 -12 -22 25 c-36 38 -25 108 21 140 15 11 74 10 80 -1 11 -16 56 -19 65 -3
6 10 20 13 50 10 29 -2 41 0 41 9 0 9 -15 13 -45 13 -32 0 -45 4 -45 14 0 8
-7 17 -16 20 -14 5 -15 4 -4 -9z"/>
<path d="M2466 913 c-6 -19 -15 -23 -47 -23 l-39 0 0 -120 0 -120 -27 0 c-19
0 -24 -3 -16 -11 6 -6 21 -9 34 -7 23 3 24 6 29 118 l5 115 33 3 c34 3 46 18
40 49 -4 16 -5 15 -12 -4z"/>
<path d="M1343 865 c0 -33 2 -45 4 -27 2 18 2 45 0 60 -2 15 -4 0 -4 -33z"/>
<path d="M1742 788 c-2 -163 -6 -158 121 -158 94 0 118 12 92 46 -14 18 -14
18 -15 -3 0 -22 -3 -23 -95 -23 l-94 0 -4 138 -3 137 -2 -137z"/>
<path d="M1153 865 c0 -27 2 -38 4 -22 2 15 2 37 0 50 -2 12 -4 0 -4 -28z"/>
<path d="M935 891 c-59 -25 -82 -115 -41 -160 26 -29 42 -26 18 3 -24 32 -18
77 15 111 35 35 84 34 112 -1 12 -15 21 -22 21 -16 0 6 -10 22 -22 36 -25 28
-72 40 -103 27z"/>
<path d="M1633 850 c0 -30 2 -43 4 -27 2 15 2 39 0 55 -2 15 -4 2 -4 -28z"/>
<path d="M812 805 c0 -16 2 -22 5 -12 2 9 2 23 0 30 -3 6 -5 -1 -5 -18z"/>
<path d="M1930 800 c0 -24 -1 -25 -65 -22 l-65 4 0 -41 0 -41 63 2 62 2 -53 3
c-43 3 -53 7 -48 19 3 9 6 18 6 20 0 2 21 4 48 4 55 1 82 18 81 51 0 13 -3 18
-6 10 -5 -11 -7 -11 -14 0 -6 10 -9 7 -9 -11z"/>
<path d="M1153 765 c0 -27 2 -38 4 -22 2 15 2 37 0 50 -2 12 -4 0 -4 -28z"/>
<path d="M1966 730 c9 -42 79 -98 131 -106 63 -9 135 20 140 57 2 15 -3 32
-12 39 -17 14 -21 0 -4 -17 8 -8 4 -15 -13 -27 -80 -56 -196 -33 -233 47 -12
25 -14 26 -9 7z"/>
<path d="M785 696 l26 -44 -23 -16 c-41 -29 -126 -49 -182 -42 -68 9 -147 48
-186 92 -17 20 -33 34 -36 31 -10 -10 87 -95 133 -118 39 -18 63 -23 128 -22
96 1 125 5 119 15 -3 4 4 8 15 8 11 0 27 10 35 22 14 20 13 25 -12 70 -15 26
-31 48 -35 48 -4 0 4 -20 18 -44z"/>
<path d="M623 713 c9 -2 23 -2 30 0 6 3 -1 5 -18 5 -16 0 -22 -2 -12 -5z"/>
</g>
</svg>
