<?xml version="1.0" standalone="no"?>
<!DOCTYPE svg PUBLIC "-//W3C//DTD SVG 20010904//EN"
 "http://www.w3.org/TR/2001/REC-SVG-20010904/DTD/svg10.dtd">
<svg version="1.0" xmlns="http://www.w3.org/2000/svg"
 width="342.000000pt" height="147.000000pt" viewBox="0 0 342.000000 147.000000"
 preserveAspectRatio="xMidYMid meet">

<g transform="translate(0.000000,147.000000) scale(0.100000,-0.100000)"
fill="#000000" stroke="none">
<path d="M285 1307 c-33 -33 -64 -114 -48 -126 4 -3 9 -12 11 -20 3 -12 0 -12
-12 -2 -13 11 -17 10 -22 -4 -4 -9 -2 -20 3 -24 6 -3 8 -24 7 -46 -13 -155
-16 -236 -11 -290 1 -13 -3 -19 -13 -17 -10 3 -9 -3 5 -19 14 -16 16 -23 8
-26 -18 -6 -16 -43 2 -43 17 0 21 -35 5 -45 -6 -4 -7 -11 -4 -17 4 -5 8 -30
10 -54 3 -43 2 -45 -56 -93 -32 -27 -74 -54 -93 -60 -41 -14 -55 -37 -26 -46
32 -11 74 4 135 47 67 46 92 54 101 30 4 -9 15 -29 26 -44 11 -15 16 -31 12
-39 -6 -9 -2 -11 13 -7 15 4 20 2 17 -11 -2 -13 6 -16 41 -18 44 -2 51 5 60
55 3 17 -2 15 -37 -11 l-31 -22 -38 43 c-22 24 -44 58 -50 77 -10 30 -8 38 29
95 47 72 74 141 104 260 28 117 31 352 4 422 -35 90 -95 112 -152 55z m75 -17
c20 -11 40 -59 40 -97 0 -14 4 -21 10 -18 6 3 10 -3 10 -15 0 -12 -4 -18 -10
-15 -5 3 -10 -3 -10 -14 0 -31 11 -52 24 -44 6 4 5 -1 -3 -11 -8 -9 -16 -43
-18 -74 -6 -81 -38 -216 -69 -292 -25 -63 -62 -125 -70 -117 -2 2 -10 46 -18
98 -30 193 -5 471 50 567 26 44 34 48 64 32z m69 -184 c-9 -8 -10 -7 -5 7 3
10 7 31 8 45 1 22 2 21 5 -7 3 -19 -1 -38 -8 -45z m-5 -132 c3 -8 2 -12 -4 -9
-6 3 -10 10 -10 16 0 14 7 11 14 -7z m-187 -396 c-3 -8 -6 -5 -6 6 -1 11 2 17
5 13 3 -3 4 -12 1 -19z m203 -222 c0 -2 -7 -6 -15 -10 -8 -3 -15 -1 -15 4 0 6
7 10 15 10 8 0 15 -2 15 -4z"/>
<path d="M3281 1313 c-24 -45 -54 -573 -32 -573 6 0 11 -8 11 -17 0 -13 -2
-15 -8 -5 -5 7 -9 -29 -10 -83 -1 -52 1 -95 4 -95 3 0 13 4 23 9 14 8 17 5 19
-20 2 -20 -1 -28 -8 -24 -6 4 -9 14 -6 22 4 9 1 13 -6 11 -7 -3 -13 -13 -14
-24 -1 -13 6 -19 22 -20 l24 -2 0 212 c0 116 7 297 16 403 9 106 14 199 11
208 -8 20 -34 19 -46 -2z m-11 -733 c0 -5 -4 -10 -10 -10 -5 0 -10 5 -10 10 0
6 5 10 10 10 6 0 10 -4 10 -10z"/>
<path d="M768 1186 c-15 -11 -18 -36 -21 -187 -1 -96 -6 -180 -11 -187 -4 -6
-15 -12 -25 -12 -11 0 -29 -9 -42 -19 -22 -18 -23 -20 -6 -26 10 -4 33 -5 52
-2 l35 6 2 -42 c3 -84 5 -103 11 -167 4 -36 10 -96 13 -135 3 -38 8 -73 10
-77 3 -4 7 -39 9 -79 3 -40 9 -77 14 -82 5 -5 7 -16 4 -23 -3 -8 0 -14 7 -14
7 0 10 8 7 20 -3 11 -2 22 3 25 4 2 10 -10 14 -27 4 -20 10 -28 16 -22 6 6 6
31 0 69 -14 89 -50 465 -50 522 l0 49 71 23 c39 12 73 20 76 17 4 -3 1 -6 -6
-6 -7 0 -9 -5 -5 -12 4 -6 3 -8 -3 -5 -13 8 -76 -60 -70 -76 7 -23 53 -37 125
-37 86 0 93 -13 26 -53 -49 -29 -50 -47 -4 -47 45 0 97 29 116 66 18 33 18 34
-1 53 -20 20 -139 46 -156 35 -5 -3 -9 -2 -9 3 0 4 28 33 62 64 55 50 61 58
49 73 -20 24 -78 20 -178 -14 -48 -16 -89 -30 -91 -30 -2 0 -2 77 -1 171 1
133 -2 174 -12 184 -11 11 -17 11 -31 1z m37 -685 c-6 -5 -25 10 -25 20 0 5 6
4 14 -3 8 -7 12 -15 11 -17z m-4 -124 c-10 -9 -11 -8 -5 6 3 10 9 15 12 12 3
-3 0 -11 -7 -18z m10 -64 c-12 -20 -14 -14 -5 12 4 9 9 14 11 11 3 -2 0 -13
-6 -23z"/>
<path d="M2942 1158 c-8 -8 -12 -56 -12 -150 l0 -138 -39 -6 c-22 -4 -42 -13
-46 -22 -7 -20 -2 -24 42 -31 35 -6 38 -9 35 -35 -2 -16 2 -32 10 -37 8 -5 9
-9 2 -9 -8 0 -11 -30 -9 -97 2 -54 4 -160 4 -235 1 -90 5 -138 12 -138 5 0 7
6 3 12 -4 7 2 5 14 -6 21 -18 22 -18 30 4 5 13 8 44 7 69 -3 62 -7 308 -6 404
l1 77 41 0 c55 0 126 19 141 38 11 13 10 15 -9 10 -13 -4 -23 -2 -23 4 0 6
-28 7 -76 3 l-75 -7 7 135 c6 116 5 138 -9 151 -19 19 -29 20 -45 4z m21 -493
c-3 -9 -8 -14 -10 -11 -3 3 -2 9 2 15 9 16 15 13 8 -4z"/>
<path d="M1440 1143 c-24 -9 -61 -46 -78 -78 -23 -41 -42 -119 -32 -125 5 -3
5 -12 1 -19 -5 -7 -6 -22 -3 -33 3 -11 -1 -24 -9 -29 -11 -7 -9 -9 6 -9 13 0
16 -3 8 -8 -7 -4 -14 -33 -16 -64 -2 -31 0 -55 4 -52 4 2 2 -7 -4 -21 -10 -21
-13 -22 -19 -7 -4 9 -5 1 -3 -18 1 -19 3 -45 4 -57 1 -15 7 -23 19 -23 9 0 13
-4 7 -8 -5 -4 -11 -13 -13 -21 -4 -19 27 -63 40 -55 7 4 8 -1 3 -16 -5 -15 -4
-20 4 -16 7 5 9 1 5 -8 -3 -9 -1 -16 6 -16 6 0 9 -4 6 -9 -9 -13 79 -51 117
-51 21 0 43 9 58 22 19 16 20 20 5 14 -13 -4 -17 -2 -13 8 5 12 1 13 -19 6
-47 -18 -75 -12 -114 28 -25 25 -43 56 -54 92 -21 69 -21 213 -1 319 9 45 13
87 9 94 -4 6 -4 9 0 5 5 -4 19 14 33 40 49 92 71 101 119 50 34 -37 60 -94 69
-153 9 -60 15 -75 29 -75 43 0 38 89 -9 187 -38 76 -115 126 -165 106z"/>
<path d="M975 1128 c-2 -7 -6 -26 -7 -43 -3 -25 0 -29 17 -27 46 7 60 74 17
80 -12 2 -24 -3 -27 -10z"/>
<path d="M201 1054 c0 -11 3 -14 6 -6 3 7 2 16 -1 19 -3 4 -6 -2 -5 -13z"/>
<path d="M2162 888 c-14 -14 -17 -345 -4 -365 4 -7 19 -14 32 -15 23 -3 25 1
31 52 10 91 68 238 89 225 6 -3 10 -27 10 -53 0 -82 32 -292 44 -285 6 4 5 0
-2 -9 -9 -11 -10 -18 -2 -23 5 -3 10 0 10 7 0 10 2 10 9 -1 5 -8 14 -10 21 -6
9 5 11 25 7 64 -3 31 -11 108 -16 171 -19 196 -19 198 -50 215 -27 13 -30 12
-60 -18 -17 -18 -31 -37 -31 -42 0 -6 -9 -21 -20 -35 l-20 -25 0 67 c0 55 -3
69 -18 77 -13 7 -23 6 -30 -1z"/>
<path d="M191 854 c0 -11 3 -14 6 -6 3 7 2 16 -1 19 -3 4 -6 -2 -5 -13z"/>
<path d="M1993 803 c-19 -21 -47 -58 -61 -82 l-26 -44 -13 45 c-7 25 -20 51
-28 58 -20 17 -101 8 -151 -16 -45 -22 -62 -63 -63 -155 -1 -49 2 -57 23 -68
32 -17 55 -11 79 21 22 29 28 99 14 149 -6 23 -3 28 20 34 35 8 48 -10 57 -78
4 -28 12 -69 17 -90 9 -34 13 -38 37 -35 21 2 28 10 33 35 9 45 57 138 85 164
l22 21 6 -43 c6 -52 21 -360 17 -373 -1 -5 5 -4 13 3 8 7 12 20 9 29 -4 15 -3
15 6 2 6 -8 11 -24 12 -35 0 -19 1 -18 11 2 8 16 8 86 2 239 -10 212 -10 216
-34 235 -35 26 -47 24 -87 -18z m-271 -153 c-2 -22 -9 -43 -15 -47 -7 -4 -8 0
-4 11 4 10 7 31 7 47 0 16 3 29 8 29 4 0 6 -18 4 -40z"/>
<path d="M2492 813 c-21 -8 -69 -86 -81 -131 -13 -46 -6 -92 14 -92 8 0 17 -5
21 -12 5 -7 2 -8 -7 -3 -8 4 -6 -1 4 -11 29 -31 105 -26 150 9 21 16 35 33 32
38 -4 5 -1 9 4 9 6 0 11 5 11 10 0 14 -49 4 -69 -14 -30 -28 -76 -31 -100 -7
-39 39 -26 72 34 91 59 19 105 49 105 70 0 36 -71 62 -118 43z m38 -37 c0 -3
-4 -8 -10 -11 -5 -3 -10 -1 -10 4 0 6 5 11 10 11 6 0 10 -2 10 -4z"/>
<path d="M500 768 c-10 -17 -22 -48 -25 -68 -4 -26 -14 -42 -31 -50 -28 -15
-27 -33 2 -38 10 -2 30 -16 44 -32 33 -37 62 -45 99 -25 35 17 58 48 71 94 8
27 7 30 -8 22 -9 -5 -33 -25 -51 -45 -38 -39 -65 -46 -76 -19 -4 12 1 24 17
36 56 44 88 80 88 98 0 22 -54 59 -88 59 -14 0 -29 -11 -42 -32z m60 -26 c0
-10 -22 -32 -32 -32 -5 0 -3 9 4 20 13 20 28 27 28 12z"/>
<path d="M2737 739 c-25 -29 -53 -66 -63 -84 -19 -36 -13 -71 12 -61 10 4 13
2 8 -6 -5 -8 0 -9 17 -5 13 4 29 7 35 7 15 0 102 77 115 102 9 16 8 19 -2 13
-9 -6 -11 -3 -6 9 4 11 -13 2 -44 -23 -85 -67 -87 -53 -5 36 26 29 27 33 13
47 -24 24 -32 20 -80 -35z m106 -54 c-3 -9 -8 -14 -10 -11 -3 3 -2 9 2 15 9
16 15 13 8 -4z"/>
<path d="M1291 764 c0 -11 3 -14 6 -6 3 7 2 16 -1 19 -3 4 -6 -2 -5 -13z"/>
<path d="M293 400 c6 -11 15 -20 19 -20 12 0 -3 28 -18 34 -11 4 -12 2 -1 -14z"/>
<path d="M3249 368 c-8 -26 -4 -38 13 -44 24 -7 43 9 35 30 -5 13 -45 24 -48
14z"/>
</g>
</svg>
